<svg version="1.1" xmlns="http://www.w3.org/2000/svg" xmlns:xlink="http://www.w3.org/1999/xlink" width="316" height="356"><defs><linearGradient id="rRGeXvIMtzul" x1="0px" x2="32px" y1="0px" y2="0px" gradientUnits="userSpaceOnUse"><stop offset="0" stop-color="#08f708"/><stop offset="1" stop-color="#788778"/></linearGradient><linearGradient id="gptNNQcxJBIr" x1="0px" x2="32px" y1="0px" y2="0px" gradientUnits="userSpaceOnUse"><stop offset="0" stop-color="#08f708"/><stop offset="1" stop-color="#08f708"/></linearGradient></defs><g transform="scale(1,1) translate(-490,18)"><path fill="none" stroke="#08f708" paint-order="fill stroke markers" d=" M 640 80 L 640 49" stroke-miterlimit="10" stroke-width="3" stroke-dasharray=""/><g><text fill="#000000" stroke="none" font-family="sans-serif" font-size="10px" font-style="normal" font-weight="normal" text-decoration="normal" x="627" y="49" text-anchor="start" dominant-baseline="central">+12V</text></g><path fill="none" stroke="#08f708" paint-order="fill stroke markers" d=" M 560 80 L 640 80" stroke-miterlimit="10" stroke-width="3" stroke-dasharray=""/><text fill="#000000" stroke="none" font-family="sans-serif" font-size="12px" font-style="normal" font-weight="normal" text-decoration="normal" x="600" y="74" text-anchor="start" dominant-baseline="alphabetic"></text><path fill="none" stroke="#08f708" paint-order="fill stroke markers" d=" M 640 80 L 736 80" stroke-miterlimit="10" stroke-width="3" stroke-dasharray=""/><text fill="#000000" stroke="none" font-family="sans-serif" font-size="12px" font-style="normal" font-weight="normal" text-decoration="normal" x="688" y="74" text-anchor="start" dominant-baseline="alphabetic"></text><path fill="none" stroke="#08f708" paint-order="fill stroke markers" d=" M 560 80 L 560 120" stroke-miterlimit="10" stroke-width="3" stroke-dasharray=""/><path fill="none" stroke="#788778" paint-order="fill stroke markers" d=" M 560 152 L 560 192" stroke-miterlimit="10" stroke-width="3" stroke-dasharray=""/><g transform="matrix(0,1,-1,0,560,120)"><path fill="none" stroke="url(#rRGeXvIMtzul)" paint-order="fill stroke markers" d=" M 0 0 L 2 6 L 6 -6 L 10 6 L 14 -6 L 18 6 L 22 -6 L 26 6 L 30 -6 L 32 0" stroke-miterlimit="10" stroke-width="3" stroke-dasharray=""/></g><text fill="#000000" stroke="none" font-family="sans-serif" font-size="12px" font-style="normal" font-weight="normal" text-decoration="normal" x="570" y="142" text-anchor="start" dominant-baseline="alphabetic">240k</text><path fill="none" stroke="#08f708" paint-order="fill stroke markers" d=" M 736 80 L 736 112" stroke-miterlimit="10" stroke-width="3" stroke-dasharray=""/><path fill="none" stroke="#08f708" paint-order="fill stroke markers" d=" M 736 144 L 736 176" stroke-miterlimit="10" stroke-width="3" stroke-dasharray=""/><g transform="matrix(0,1,-1,0,736,112)"><path fill="none" stroke="url(#gptNNQcxJBIr)" paint-order="fill stroke markers" d=" M 0 0 L 2 6 L 6 -6 L 10 6 L 14 -6 L 18 6 L 22 -6 L 26 6 L 30 -6 L 32 0" stroke-miterlimit="10" stroke-width="3" stroke-dasharray=""/></g><text fill="#000000" stroke="none" font-family="sans-serif" font-size="12px" font-style="normal" font-weight="normal" text-decoration="normal" x="746" y="134" text-anchor="start" dominant-baseline="alphabetic">2.2k</text><path fill="none" stroke="#08f708" paint-order="fill stroke markers" d=" M 736 176 L 723 186" stroke-miterlimit="10" stroke-width="3" stroke-dasharray=""/><path fill="none" stroke="#877878" paint-order="fill stroke markers" d=" M 736 208 L 723 198" stroke-miterlimit="10" stroke-width="3" stroke-dasharray=""/><path fill="#000000" stroke="none" paint-order="stroke fill markers" d=" M 736 208 L 732 200 L 727 206 Z"/><path fill="none" stroke="#788778" paint-order="fill stroke markers" d=" M 560 192 L 720 192" stroke-miterlimit="10" stroke-width="3" stroke-dasharray=""/><path fill="#788778" stroke="none" paint-order="stroke fill markers" d=" M 720 176 L 723 176 L 723 208 L 720 208 Z"/><path fill="none" stroke="#877878" paint-order="fill stroke markers" d=" M 736 208 L 736 288" stroke-miterlimit="10" stroke-width="3" stroke-dasharray=""/><path fill="none" stroke="#877878" paint-order="fill stroke markers" d=" M 746 288 L 726 288" stroke-miterlimit="10" stroke-width="3" stroke-dasharray=""/><path fill="none" stroke="#877878" paint-order="fill stroke markers" d=" M 742 293 L 730 293" stroke-miterlimit="10" stroke-width="3" stroke-dasharray=""/><path fill="none" stroke="#877878" paint-order="fill stroke markers" d=" M 738 298 L 734 298" stroke-miterlimit="10" stroke-width="3" stroke-dasharray=""/><path fill="#000000" stroke="none" paint-order="stroke fill markers" d=" M 643 80 A 3 3 0 1 1 642.9999999999577 79.99998407846124 Z"/></g></svg>