<svg version="1.1" xmlns="http://www.w3.org/2000/svg" xmlns:xlink="http://www.w3.org/1999/xlink" width="316" height="356"><defs><linearGradient id="TqzOcUhIhBam" x1="0px" x2="32px" y1="0px" y2="0px" gradientUnits="userSpaceOnUse"><stop offset="0" stop-color="#08f708"/><stop offset="1" stop-color="#788778"/></linearGradient></defs><g transform="scale(1,1) translate(-138,18)"><path fill="none" stroke="#877878" paint-order="fill stroke markers" d=" M 384 208 L 384 288" stroke-miterlimit="10" stroke-width="3" stroke-dasharray=""/><path fill="none" stroke="#877878" paint-order="fill stroke markers" d=" M 394 288 L 374 288" stroke-miterlimit="10" stroke-width="3" stroke-dasharray=""/><path fill="none" stroke="#877878" paint-order="fill stroke markers" d=" M 390 293 L 378 293" stroke-miterlimit="10" stroke-width="3" stroke-dasharray=""/><path fill="none" stroke="#877878" paint-order="fill stroke markers" d=" M 386 298 L 382 298" stroke-miterlimit="10" stroke-width="3" stroke-dasharray=""/><path fill="none" stroke="#08f708" paint-order="fill stroke markers" d=" M 384 176 L 371 186" stroke-miterlimit="10" stroke-width="3" stroke-dasharray=""/><path fill="none" stroke="#877878" paint-order="fill stroke markers" d=" M 384 208 L 371 198" stroke-miterlimit="10" stroke-width="3" stroke-dasharray=""/><path fill="#000000" stroke="none" paint-order="stroke fill markers" d=" M 384 208 L 380 200 L 375 206 Z"/><path fill="none" stroke="#788778" paint-order="fill stroke markers" d=" M 208 192 L 368 192" stroke-miterlimit="10" stroke-width="3" stroke-dasharray=""/><path fill="#788778" stroke="none" paint-order="stroke fill markers" d=" M 368 176 L 371 176 L 371 208 L 368 208 Z"/><path fill="none" stroke="#08f708" paint-order="fill stroke markers" d=" M 208 80 L 208 120" stroke-miterlimit="10" stroke-width="3" stroke-dasharray=""/><path fill="none" stroke="#788778" paint-order="fill stroke markers" d=" M 208 152 L 208 192" stroke-miterlimit="10" stroke-width="3" stroke-dasharray=""/><g transform="matrix(0,1,-1,0,208,120)"><path fill="none" stroke="url(#TqzOcUhIhBam)" paint-order="fill stroke markers" d=" M 0 0 L 2 6 L 6 -6 L 10 6 L 14 -6 L 18 6 L 22 -6 L 26 6 L 30 -6 L 32 0" stroke-miterlimit="10" stroke-width="3" stroke-dasharray=""/></g><text fill="#000000" stroke="none" font-family="sans-serif" font-size="12px" font-style="normal" font-weight="normal" text-decoration="normal" x="218" y="142" text-anchor="start" dominant-baseline="alphabetic">240k</text><path fill="none" stroke="#08f708" paint-order="fill stroke markers" d=" M 208 80 L 288 80" stroke-miterlimit="10" stroke-width="3" stroke-dasharray=""/><text fill="#000000" stroke="none" font-family="sans-serif" font-size="12px" font-style="normal" font-weight="normal" text-decoration="normal" x="248" y="74" text-anchor="start" dominant-baseline="alphabetic"></text><path fill="none" stroke="#08f708" paint-order="fill stroke markers" d=" M 288 80 L 288 49" stroke-miterlimit="10" stroke-width="3" stroke-dasharray=""/><g><text fill="#000000" stroke="none" font-family="sans-serif" font-size="12px" font-style="normal" font-weight="normal" text-decoration="normal" x="272" y="37" text-anchor="start" dominant-baseline="central">+12V</text></g><path fill="#000000" stroke="none" paint-order="stroke fill markers" d=" M 387 176 A 3 3 0 1 1 386.99999999995777 175.99998407846124 Z"/></g></svg>