<svg version="1.1" xmlns="http://www.w3.org/2000/svg" xmlns:xlink="http://www.w3.org/1999/xlink" width="753" height="538"><defs><linearGradient id="sxvUsHmoUFir" x1="0px" x2="32px" y1="0px" y2="0px" gradientUnits="userSpaceOnUse"><stop offset="0" stop-color="#877878"/><stop offset="1" stop-color="#877878"/></linearGradient><linearGradient id="mbxycNWZLMJW" x1="0px" x2="32px" y1="0px" y2="0px" gradientUnits="userSpaceOnUse"><stop offset="0" stop-color="#877878"/><stop offset="1" stop-color="#877878"/></linearGradient><linearGradient id="BFiWhCdpMKLL" x1="0px" x2="32px" y1="0px" y2="0px" gradientUnits="userSpaceOnUse"><stop offset="0" stop-color="#877878"/><stop offset="1" stop-color="#877878"/></linearGradient><linearGradient id="lMqNcsNAJoGE" x1="0px" x2="32px" y1="0px" y2="0px" gradientUnits="userSpaceOnUse"><stop offset="0" stop-color="#877878"/><stop offset="1" stop-color="#877878"/></linearGradient></defs><g transform="scale(1,1) translate(-10,2)"><path fill="none" stroke="#877878" paint-order="fill stroke markers" d=" M 144 80 L 134 93" stroke-miterlimit="10" stroke-width="3" stroke-dasharray=""/><path fill="none" stroke="#877878" paint-order="fill stroke markers" d=" M 112 80 L 122 93" stroke-miterlimit="10" stroke-width="3" stroke-dasharray=""/><path fill="#000000" stroke="none" paint-order="stroke fill markers" d=" M 123 91 L 120 82 L 114 88 Z"/><path fill="none" stroke="#877878" paint-order="fill stroke markers" d=" M 128 128 L 128 96" stroke-miterlimit="10" stroke-width="3" stroke-dasharray=""/><path fill="#877878" stroke="none" paint-order="stroke fill markers" d=" M 112 96 L 112 93 L 144 93 L 144 96 Z"/><path fill="none" stroke="#808080" paint-order="fill stroke markers" d=" M 160 96 L 272 96" stroke-miterlimit="10" stroke-dasharray=""/><path fill="none" stroke="#877878" paint-order="fill stroke markers" d=" M 336 64 L 336 88" stroke-miterlimit="10" stroke-width="3" stroke-dasharray=""/><path fill="none" stroke="#877878" paint-order="fill stroke markers" d=" M 336 104 L 336 128" stroke-miterlimit="10" stroke-width="3" stroke-dasharray=""/><path fill="#877878" stroke="none" paint-order="stroke fill markers" d=" M 344 88 L 328 88 L 336 104 Z"/><path fill="none" stroke="#877878" paint-order="fill stroke markers" d=" M 344 104 L 328 104" stroke-miterlimit="10" stroke-width="3" stroke-dasharray=""/><path fill="none" stroke="#877878" paint-order="fill stroke markers" d=" M 384 128 L 384 109" stroke-miterlimit="10" stroke-width="3" stroke-dasharray=""/><path fill="none" stroke="#877878" paint-order="fill stroke markers" d=" M 384 83 L 384 64" stroke-miterlimit="10" stroke-width="3" stroke-dasharray=""/><path fill="none" stroke="#877878" paint-order="fill stroke markers" d=" M 395.76 96 A 11.76 11.76 0 1 1 395.7599941200005 95.98824000196" stroke-miterlimit="10" stroke-width="3" stroke-dasharray=""/><path fill="none" stroke="#877878" paint-order="fill stroke markers" d=" M 384 102 L 384 93" stroke-miterlimit="10" stroke-width="3" stroke-dasharray=""/><path fill="#877878" stroke="none" paint-order="stroke fill markers" d=" M 384 89 L 380 93 L 388 93 Z"/><path fill="none" stroke="#877878" paint-order="fill stroke markers" d=" M 336 128 L 384 128" stroke-miterlimit="10" stroke-width="3" stroke-dasharray=""/><text fill="#000000" stroke="none" font-family="sans-serif" font-size="12px" font-style="normal" font-weight="normal" text-decoration="normal" x="360" y="122" text-anchor="start" dominant-baseline="alphabetic"></text><path fill="none" stroke="#877878" paint-order="fill stroke markers" d=" M 384 128 L 416 128" stroke-miterlimit="10" stroke-width="3" stroke-dasharray=""/><text fill="#000000" stroke="none" font-family="sans-serif" font-size="12px" font-style="normal" font-weight="normal" text-decoration="normal" x="400" y="122" text-anchor="start" dominant-baseline="alphabetic"></text><path fill="none" stroke="#877878" paint-order="fill stroke markers" d=" M 384 64 L 416 64" stroke-miterlimit="10" stroke-width="3" stroke-dasharray=""/><text fill="#000000" stroke="none" font-family="sans-serif" font-size="12px" font-style="normal" font-weight="normal" text-decoration="normal" x="400" y="58" text-anchor="start" dominant-baseline="alphabetic"></text><path fill="none" stroke="#877878" paint-order="fill stroke markers" d=" M 336 64 L 304 64" stroke-miterlimit="10" stroke-width="3" stroke-dasharray=""/><text fill="#000000" stroke="none" font-family="sans-serif" font-size="12px" font-style="normal" font-weight="normal" text-decoration="normal" x="320" y="58" text-anchor="start" dominant-baseline="alphabetic"></text><path fill="none" stroke="#877878" paint-order="fill stroke markers" d=" M 336 128 L 304 128" stroke-miterlimit="10" stroke-width="3" stroke-dasharray=""/><text fill="#000000" stroke="none" font-family="sans-serif" font-size="12px" font-style="normal" font-weight="normal" text-decoration="normal" x="320" y="122" text-anchor="start" dominant-baseline="alphabetic"></text><rect fill="none" stroke="#808080" x="80" y="48" width="92" height="103" stroke-miterlimit="10" stroke-dasharray="16,6"/><rect fill="none" stroke="#808080" x="320" y="80" width="34" height="36" stroke-miterlimit="10" stroke-dasharray="16,6"/><path fill="none" stroke="#877878" paint-order="fill stroke markers" d=" M 544 128 L 512 128" stroke-miterlimit="10" stroke-width="3"/><text fill="#000000" stroke="none" font-family="sans-serif" font-size="12px" font-style="normal" font-weight="normal" text-decoration="normal" x="528" y="122" text-anchor="start" dominant-baseline="alphabetic"></text><path fill="none" stroke="#877878" paint-order="fill stroke markers" d=" M 544 64 L 512 64" stroke-miterlimit="10" stroke-width="3"/><text fill="#000000" stroke="none" font-family="sans-serif" font-size="12px" font-style="normal" font-weight="normal" text-decoration="normal" x="528" y="58" text-anchor="start" dominant-baseline="alphabetic"></text><path fill="none" stroke="#877878" paint-order="fill stroke markers" d=" M 592 64 L 624 64" stroke-miterlimit="10" stroke-width="3"/><text fill="#000000" stroke="none" font-family="sans-serif" font-size="12px" font-style="normal" font-weight="normal" text-decoration="normal" x="608" y="58" text-anchor="start" dominant-baseline="alphabetic"></text><path fill="none" stroke="#877878" paint-order="fill stroke markers" d=" M 592 128 L 624 128" stroke-miterlimit="10" stroke-width="3"/><text fill="#000000" stroke="none" font-family="sans-serif" font-size="12px" font-style="normal" font-weight="normal" text-decoration="normal" x="608" y="122" text-anchor="start" dominant-baseline="alphabetic"></text><path fill="none" stroke="#877878" paint-order="fill stroke markers" d=" M 544 128 L 592 128" stroke-miterlimit="10" stroke-width="3"/><text fill="#000000" stroke="none" font-family="sans-serif" font-size="12px" font-style="normal" font-weight="normal" text-decoration="normal" x="568" y="122" text-anchor="start" dominant-baseline="alphabetic"></text><path fill="none" stroke="#877878" paint-order="fill stroke markers" d=" M 592 128 L 592 109" stroke-miterlimit="10" stroke-width="3"/><path fill="none" stroke="#877878" paint-order="fill stroke markers" d=" M 592 83 L 592 64" stroke-miterlimit="10" stroke-width="3"/><path fill="none" stroke="#877878" paint-order="fill stroke markers" d=" M 603.76 96 A 11.76 11.76 0 1 1 603.7599941200004 95.98824000196" stroke-miterlimit="10" stroke-width="3"/><path fill="none" stroke="#877878" paint-order="fill stroke markers" d=" M 592 102 L 592 93" stroke-miterlimit="10" stroke-width="3"/><path fill="#877878" stroke="none" paint-order="stroke fill markers" d=" M 592 89 L 588 93 L 596 93 Z"/><path fill="none" stroke="#877878" paint-order="fill stroke markers" d=" M 544 64 L 544 80" stroke-miterlimit="10" stroke-width="3"/><path fill="none" stroke="#877878" paint-order="fill stroke markers" d=" M 544 112 L 544 128" stroke-miterlimit="10" stroke-width="3"/><g transform="matrix(0,1,-1,0,544,80)"><path fill="none" stroke="url(#sxvUsHmoUFir)" paint-order="fill stroke markers" d=" M 0 0 L 2 6 L 6 -6 L 10 6 L 14 -6 L 18 6 L 22 -6 L 26 6 L 30 -6 L 32 0" stroke-miterlimit="10" stroke-width="3"/></g><text fill="#000000" stroke="none" font-family="sans-serif" font-size="12px" font-style="normal" font-weight="normal" text-decoration="normal" x="554" y="102" text-anchor="start" dominant-baseline="alphabetic">1k</text><path fill="none" stroke="#808080" paint-order="fill stroke markers" d=" M 415 96 L 527 96" stroke-miterlimit="10"/><g><text fill="#000000" stroke="none" font-family="sans-serif" font-size="24px" font-style="normal" font-weight="normal" text-decoration="normal" x="525" y="151" text-anchor="start" dominant-baseline="alphabetic">re</text></g><g><text fill="#000000" stroke="none" font-family="sans-serif" font-size="24px" font-style="normal" font-weight="normal" text-decoration="normal" x="615" y="106" text-anchor="start" dominant-baseline="alphabetic">alfa*Ie</text></g><path fill="none" stroke="#877878" paint-order="fill stroke markers" d=" M 160 384 L 160 360" stroke-miterlimit="10" stroke-width="3"/><path fill="none" stroke="#877878" paint-order="fill stroke markers" d=" M 160 328 L 160 304" stroke-miterlimit="10" stroke-width="3"/><g transform="matrix(0,-1,1,0,160,360)"><path fill="none" stroke="url(#mbxycNWZLMJW)" paint-order="fill stroke markers" d=" M 0 0 L 2 6 L 6 -6 L 10 6 L 14 -6 L 18 6 L 22 -6 L 26 6 L 30 -6 L 32 0" stroke-miterlimit="10" stroke-width="3"/></g><text fill="#000000" stroke="none" font-family="sans-serif" font-size="12px" font-style="normal" font-weight="normal" text-decoration="normal" x="170" y="350" text-anchor="start" dominant-baseline="alphabetic">1k</text><path fill="none" stroke="#877878" paint-order="fill stroke markers" d=" M 240 384 L 240 360" stroke-miterlimit="10" stroke-width="3"/><path fill="none" stroke="#877878" paint-order="fill stroke markers" d=" M 240 328 L 240 304" stroke-miterlimit="10" stroke-width="3"/><g transform="matrix(0,-1,1,0,240,360)"><path fill="none" stroke="url(#BFiWhCdpMKLL)" paint-order="fill stroke markers" d=" M 0 0 L 2 6 L 6 -6 L 10 6 L 14 -6 L 18 6 L 22 -6 L 26 6 L 30 -6 L 32 0" stroke-miterlimit="10" stroke-width="3"/></g><text fill="#000000" stroke="none" font-family="sans-serif" font-size="12px" font-style="normal" font-weight="normal" text-decoration="normal" x="250" y="350" text-anchor="start" dominant-baseline="alphabetic">1k</text><path fill="none" stroke="#877878" paint-order="fill stroke markers" d=" M 336 384 L 336 357" stroke-miterlimit="10" stroke-width="3"/><path fill="none" stroke="#877878" paint-order="fill stroke markers" d=" M 336 331 L 336 304" stroke-miterlimit="10" stroke-width="3"/><path fill="none" stroke="#877878" paint-order="fill stroke markers" d=" M 347.76 344 A 11.76 11.76 0 1 1 347.7599941200005 343.98824000196" stroke-miterlimit="10" stroke-width="3"/><path fill="none" stroke="#877878" paint-order="fill stroke markers" d=" M 336 350 L 336 341" stroke-miterlimit="10" stroke-width="3"/><path fill="#877878" stroke="none" paint-order="stroke fill markers" d=" M 336 337 L 332 341 L 340 341 Z"/><path fill="none" stroke="#877878" paint-order="fill stroke markers" d=" M 448 384 L 448 360" stroke-miterlimit="10" stroke-width="3"/><path fill="none" stroke="#877878" paint-order="fill stroke markers" d=" M 448 328 L 448 304" stroke-miterlimit="10" stroke-width="3"/><g transform="matrix(0,-1,1,0,448,360)"><path fill="none" stroke="url(#lMqNcsNAJoGE)" paint-order="fill stroke markers" d=" M 0 0 L 2 6 L 6 -6 L 10 6 L 14 -6 L 18 6 L 22 -6 L 26 6 L 30 -6 L 32 0" stroke-miterlimit="10" stroke-width="3"/></g><text fill="#000000" stroke="none" font-family="sans-serif" font-size="12px" font-style="normal" font-weight="normal" text-decoration="normal" x="458" y="350" text-anchor="start" dominant-baseline="alphabetic">1k</text><path fill="none" stroke="#877878" paint-order="fill stroke markers" d=" M 160 304 L 240 304" stroke-miterlimit="10" stroke-width="3"/><text fill="#000000" stroke="none" font-family="sans-serif" font-size="12px" font-style="normal" font-weight="normal" text-decoration="normal" x="200" y="298" text-anchor="start" dominant-baseline="alphabetic"></text><path fill="none" stroke="#877878" paint-order="fill stroke markers" d=" M 160 384 L 240 384" stroke-miterlimit="10" stroke-width="3"/><text fill="#000000" stroke="none" font-family="sans-serif" font-size="12px" font-style="normal" font-weight="normal" text-decoration="normal" x="200" y="378" text-anchor="start" dominant-baseline="alphabetic"></text><path fill="none" stroke="#877878" paint-order="fill stroke markers" d=" M 240 384 L 336 384" stroke-miterlimit="10" stroke-width="3"/><text fill="#000000" stroke="none" font-family="sans-serif" font-size="12px" font-style="normal" font-weight="normal" text-decoration="normal" x="288" y="378" text-anchor="start" dominant-baseline="alphabetic"></text><path fill="none" stroke="#877878" paint-order="fill stroke markers" d=" M 336 384 L 448 384" stroke-miterlimit="10" stroke-width="3"/><text fill="#000000" stroke="none" font-family="sans-serif" font-size="12px" font-style="normal" font-weight="normal" text-decoration="normal" x="392" y="378" text-anchor="start" dominant-baseline="alphabetic"></text><path fill="none" stroke="#877878" paint-order="fill stroke markers" d=" M 336 304 L 448 304" stroke-miterlimit="10" stroke-width="3"/><text fill="#000000" stroke="none" font-family="sans-serif" font-size="12px" font-style="normal" font-weight="normal" text-decoration="normal" x="392" y="298" text-anchor="start" dominant-baseline="alphabetic"></text><g><text fill="#000000" stroke="none" font-family="sans-serif" font-size="24px" font-style="normal" font-weight="normal" text-decoration="normal" x="136" y="419" text-anchor="start" dominant-baseline="alphabetic">RE</text></g><g><text fill="#000000" stroke="none" font-family="sans-serif" font-size="24px" font-style="normal" font-weight="normal" text-decoration="normal" x="223" y="416" text-anchor="start" dominant-baseline="alphabetic">re</text></g><g><text fill="#000000" stroke="none" font-family="sans-serif" font-size="24px" font-style="normal" font-weight="normal" text-decoration="normal" x="435" y="415" text-anchor="start" dominant-baseline="alphabetic">RC</text></g><g><text fill="#000000" stroke="none" font-family="sans-serif" font-size="24px" font-style="normal" font-weight="normal" text-decoration="normal" x="151" y="293" text-anchor="start" dominant-baseline="alphabetic">emitter</text></g><g><text fill="#000000" stroke="none" font-family="sans-serif" font-size="24px" font-style="normal" font-weight="normal" text-decoration="normal" x="245" y="450" text-anchor="start" dominant-baseline="alphabetic">base</text></g><g><text fill="#000000" stroke="none" font-family="sans-serif" font-size="24px" font-style="normal" font-weight="normal" text-decoration="normal" x="338" y="290" text-anchor="start" dominant-baseline="alphabetic">collector</text></g><path fill="none" stroke="#808080" paint-order="fill stroke markers" d=" M 285 280 L 509 168" stroke-miterlimit="10"/><rect fill="none" stroke="#808080" x="431" y="318" width="44" height="55" stroke-miterlimit="10" stroke-dasharray="16,6"/><rect fill="none" stroke="#808080" x="221" y="317" width="44" height="55" stroke-miterlimit="10" stroke-dasharray="16,6"/><g><text fill="#000000" stroke="none" font-family="sans-serif" font-size="24px" font-style="normal" font-weight="normal" text-decoration="normal" x="165" y="483" text-anchor="start" dominant-baseline="alphabetic">Av(AC gain) = alfaRC/re</text></g><path fill="#000000" stroke="none" paint-order="stroke fill markers" d=" M 115 80 A 3 3 0 1 1 114.99999999995775 79.99998407846124 Z"/><path fill="#000000" stroke="none" paint-order="stroke fill markers" d=" M 131 128 A 3 3 0 1 1 130.99999999995774 127.99998407846124 Z"/><path fill="#000000" stroke="none" paint-order="stroke fill markers" d=" M 147 80 A 3 3 0 1 1 146.99999999995774 79.99998407846124 Z"/><path fill="#000000" stroke="none" paint-order="stroke fill markers" d=" M 243 384 A 3 3 0 1 1 242.99999999995774 383.99998407846124 Z"/><path fill="#000000" stroke="none" paint-order="stroke fill markers" d=" M 307 64 A 3 3 0 1 1 306.99999999995777 63.99998407846124 Z"/><path fill="#000000" stroke="none" paint-order="stroke fill markers" d=" M 307 128 A 3 3 0 1 1 306.99999999995777 127.99998407846124 Z"/><path fill="#000000" stroke="none" paint-order="stroke fill markers" d=" M 339 128 A 3 3 0 1 1 338.99999999995777 127.99998407846124 Z"/><path fill="#000000" stroke="none" paint-order="stroke fill markers" d=" M 339 384 A 3 3 0 1 1 338.99999999995777 383.99998407846124 Z"/><path fill="#000000" stroke="none" paint-order="stroke fill markers" d=" M 387 128 A 3 3 0 1 1 386.99999999995777 127.99998407846124 Z"/><path fill="#000000" stroke="none" paint-order="stroke fill markers" d=" M 419 64 A 3 3 0 1 1 418.99999999995777 63.99998407846124 Z"/><path fill="#000000" stroke="none" paint-order="stroke fill markers" d=" M 419 128 A 3 3 0 1 1 418.99999999995777 127.99998407846124 Z"/><path fill="#000000" stroke="none" paint-order="stroke fill markers" d=" M 515 64 A 3 3 0 1 1 514.9999999999577 63.99998407846124 Z"/><path fill="#000000" stroke="none" paint-order="stroke fill markers" d=" M 515 128 A 3 3 0 1 1 514.9999999999577 127.99998407846124 Z"/><path fill="#000000" stroke="none" paint-order="stroke fill markers" d=" M 547 128 A 3 3 0 1 1 546.9999999999577 127.99998407846124 Z"/><path fill="#000000" stroke="none" paint-order="stroke fill markers" d=" M 595 128 A 3 3 0 1 1 594.9999999999577 127.99998407846124 Z"/><path fill="#000000" stroke="none" paint-order="stroke fill markers" d=" M 627 64 A 3 3 0 1 1 626.9999999999577 63.99998407846124 Z"/><path fill="#000000" stroke="none" paint-order="stroke fill markers" d=" M 627 128 A 3 3 0 1 1 626.9999999999577 127.99998407846124 Z"/></g></svg>